<svg width="22" height="22" viewBox="0 0 22 22" fill="none" xmlns="http://www.w3.org/2000/svg">
<path fill-rule="evenodd" clip-rule="evenodd" d="M10.9762 0.599609C11.4317 0.599609 11.7272 0.619922 11.9242 0.664609C12.0801 0.701172 12.3961 0.786484 12.6219 0.855547C12.8476 0.924609 13.1882 1.06273 13.3811 1.16023C13.5739 1.25773 13.8489 1.4243 13.9966 1.52586C14.1444 1.63148 14.4111 1.85492 14.92 2.33836L16.3974 2.35461C17.7311 2.37086 17.9035 2.37898 18.1825 2.45617C18.3508 2.50086 18.6298 2.59836 18.7981 2.66742C18.9664 2.73648 19.2536 2.88273 19.4342 2.99242C19.6148 3.09805 19.9184 3.33367 20.1072 3.50836C20.296 3.68711 20.5381 3.94711 20.6448 4.09336C20.7515 4.23961 20.9034 4.47523 20.9854 4.62148C21.0634 4.76773 21.1824 5.03992 21.2522 5.23086C21.3179 5.4218 21.404 5.73867 21.441 5.9418C21.5066 6.27492 21.5107 6.79086 21.4861 17.723L21.3712 18.1293C21.3096 18.3527 21.1701 18.7184 21.0593 18.9418C20.9526 19.1652 20.7515 19.4943 20.6161 19.673C20.4807 19.8518 20.2591 20.0955 20.1277 20.2174C19.9923 20.3393 19.7748 20.514 19.6394 20.6115C19.504 20.7049 19.2167 20.8674 19.0033 20.969C18.7653 21.0868 18.4247 21.2046 17.6285 21.3996H4.37318L3.90124 21.2859C3.60986 21.2127 3.26514 21.0909 2.9984 20.9649C2.76037 20.8552 2.41976 20.6521 2.23919 20.518C2.05862 20.384 1.81239 20.1646 1.68928 20.0346C1.56616 19.9005 1.3897 19.6852 1.29121 19.5512C1.19682 19.4171 1.03267 19.1327 0.93007 18.9215C0.827474 18.7102 0.692048 18.3527 0.515584 17.723L0.503273 12.0355C0.495065 7.14023 0.499169 6.29523 0.552518 5.98242C0.585349 5.7793 0.671529 5.45023 0.741294 5.25117C0.815163 5.04805 0.938278 4.76773 1.01625 4.62148C1.09422 4.47523 1.25017 4.23961 1.35687 4.09336C1.46357 3.94711 1.68928 3.6993 1.85343 3.54492C2.02169 3.38648 2.26792 3.18336 2.40334 3.09398C2.53877 3.00055 2.76037 2.87055 2.8958 2.80555C3.03123 2.73648 3.28156 2.63086 3.44982 2.57398C3.61807 2.51305 3.91355 2.43586 4.10643 2.40336C4.36086 2.36273 4.81228 2.34648 7.12273 2.34242L7.47156 2.0093C7.66444 1.82242 7.95991 1.57867 8.12817 1.46492C8.29643 1.35523 8.54676 1.20492 8.68219 1.13992C8.81761 1.07086 9.08436 0.961172 9.27724 0.892109C9.47012 0.827109 9.7738 0.741797 9.95437 0.701172C10.1349 0.664609 10.2909 0.628047 10.2991 0.615859C10.3073 0.607734 10.6151 0.599609 10.9762 0.599609ZM9.79022 2.54961C9.65479 2.5943 9.44139 2.6918 9.31828 2.76086C9.19516 2.82992 8.98997 2.96398 8.86686 3.05742C8.74374 3.15492 8.56728 3.31336 8.47289 3.41086C8.38261 3.5043 8.25129 3.65867 8.18152 3.74805C8.11176 3.83742 7.98864 4.02836 7.91067 4.17461C7.8327 4.32086 7.71369 4.59305 7.65213 4.78398C7.55774 5.07648 7.54132 5.20242 7.53722 5.62086C7.53312 6.09211 7.53722 6.11648 7.64392 6.27086C7.70548 6.35617 7.82449 6.47398 7.91067 6.53086C8.0543 6.62836 8.08303 6.63242 8.86275 6.64461L9.6671 6.65273C10.9803 4.69461 11.2717 4.29648 11.3702 4.23148C11.4482 4.17461 11.5959 4.11367 11.6985 4.0893C11.8339 4.06086 11.9406 4.06086 12.0884 4.09742C12.2402 4.13398 12.3428 4.19492 12.4823 4.33305C12.6136 4.46711 12.6834 4.5768 12.7162 4.71086C12.745 4.82461 12.7532 4.97898 12.7368 5.07648C12.7162 5.20242 12.5808 5.44211 12.2443 5.9418L11.7806 6.63242C13.3523 6.65273 13.8325 6.64055 13.9146 6.61617C13.9925 6.59586 14.1321 6.50648 14.2182 6.42117C14.3085 6.33586 14.4029 6.20586 14.4357 6.13273C14.4645 6.06367 14.4891 5.86055 14.4891 5.68586C14.4891 5.51523 14.4604 5.25523 14.4316 5.10898C14.3988 4.96273 14.3167 4.69867 14.247 4.51992C14.1772 4.34117 14.0418 4.07711 13.9474 3.93086C13.853 3.78461 13.6355 3.52867 13.4672 3.35805C13.2949 3.19148 13.0363 2.97617 12.8886 2.88273C12.7409 2.7893 12.4741 2.65523 12.2935 2.58617C12.113 2.51711 11.8462 2.43586 11.6985 2.40336C11.5508 2.37492 11.2266 2.35055 10.9803 2.35055C10.73 2.35055 10.4181 2.37898 10.2827 2.40742C10.1473 2.43586 9.92564 2.50086 9.79022 2.54961ZM4.00383 4.21523C3.84378 4.26805 3.58524 4.39805 3.4293 4.50367C3.26925 4.60523 3.04354 4.80023 2.92453 4.93023C2.80552 5.0643 2.63726 5.30805 2.54698 5.47461C2.46079 5.64117 2.3582 5.90117 2.32537 6.05148C2.26792 6.29523 2.25971 6.9818 2.26792 11.9827L2.28023 17.6418C2.44028 18.0521 2.55108 18.2755 2.62905 18.4096C2.70702 18.5396 2.88759 18.759 3.02302 18.8971C3.16255 19.0312 3.38415 19.2099 3.51548 19.2871C3.6509 19.3643 3.87661 19.474 4.02435 19.5309L4.2911 19.6324H17.6285C18.0717 19.4943 18.3221 19.3846 18.4657 19.2993C18.6093 19.214 18.8391 19.0312 18.9787 18.8971C19.1141 18.759 19.2988 18.5315 19.385 18.3893C19.4711 18.2471 19.5819 18.0115 19.6312 17.8652L19.7215 17.6012C19.742 8.00961 19.7338 6.31961 19.7009 6.14492C19.6763 6.01086 19.5737 5.73461 19.4752 5.53555C19.3685 5.31617 19.2085 5.07242 19.0772 4.93023C18.9582 4.80023 18.7201 4.60117 18.5519 4.49148C18.3754 4.37773 18.1046 4.24773 17.9158 4.1868C17.6244 4.09336 17.4931 4.08117 16.7749 4.0568C16.3317 4.04461 15.9665 4.04461 15.9665 4.06086C15.9665 4.08117 16.0034 4.24367 16.0526 4.42648C16.0978 4.61336 16.1635 4.95461 16.1963 5.19023C16.225 5.42586 16.2537 5.76305 16.2537 5.9418C16.2537 6.14086 16.2209 6.39274 16.1717 6.5918C16.1224 6.77055 16.028 7.02648 15.9542 7.16055C15.8803 7.29461 15.6956 7.5343 15.5356 7.69273C15.3304 7.89586 15.158 8.0218 14.9405 8.12742C14.7723 8.21274 14.4932 8.30617 14.3249 8.34273C14.0623 8.39555 13.5739 8.40367 10.8572 8.39149L7.69727 8.3793C7.31561 8.23305 7.09401 8.13555 6.96269 8.06242C6.83136 7.9893 6.60155 7.81461 6.45381 7.66836C6.25683 7.4693 6.14603 7.31086 6.0147 7.03867C5.91621 6.83555 5.81362 6.56336 5.7931 6.4293C5.76847 6.29523 5.74796 6.05555 5.74796 5.90117C5.74796 5.74273 5.77668 5.42586 5.81362 5.19023C5.85055 4.95461 5.92442 4.61336 5.97777 4.42648C6.03112 4.24367 6.07626 4.08523 6.07626 4.07305C6.07626 4.06086 5.76847 4.0568 5.38682 4.0568C5.00927 4.06086 4.60709 4.07711 4.49629 4.09336C4.38138 4.10961 4.15978 4.16648 4.00383 4.21523Z" fill="#5D8A5E" stroke="#5D8A5E" stroke-width="0.5"/>
</svg>
