<svg width="32" height="33" viewBox="0 0 32 33" fill="none" xmlns="http://www.w3.org/2000/svg">
<rect y="0.5" width="32" height="32" rx="16" fill="#F2D9D6"/>
<path d="M18.8 18.2359H18L16.8 20.6132L15.2 15.8585L14 18.2359H13.2M15.9945 13.1925C14.395 11.3402 11.7278 10.842 9.72376 12.5381C7.71972 14.2343 7.43757 17.0701 9.01136 19.0762C10.2001 20.5914 13.577 23.6332 15.1584 25.0311C15.4491 25.288 15.5945 25.4165 15.7647 25.4671C15.9124 25.511 16.0766 25.511 16.2244 25.4671C16.3946 25.4165 16.5399 25.288 16.8306 25.0311C18.412 23.6332 21.789 20.5914 22.9777 19.0762C24.5515 17.0701 24.3038 14.2164 22.2653 12.5381C20.2268 10.8598 17.594 11.3402 15.9945 13.1925Z" stroke="#B05A4F" stroke-width="2" stroke-linecap="round" stroke-linejoin="round"/>
</svg>
