<svg width="25" height="24" viewBox="0 0 25 24" fill="none" xmlns="http://www.w3.org/2000/svg">
<path d="M21.5 18.1261V13.0003C21.5 8.03737 17.4631 4.00046 12.5001 4.00046C7.53719 4.00046 3.50023 8.03737 3.50023 13.0003V18.1261C1.77625 18.5711 0.500267 20.1391 0.500267 22C0.500267 23.103 1.39726 24 2.50024 24H22.5C23.603 24 24.5 23.103 24.5 22C24.5 20.1391 23.224 18.5711 21.5 18.1261ZM12.5001 6.00042C16.3591 6.00042 19.5001 9.14134 19.5001 13.0003V18.0001H5.50021V13.0003C5.50021 9.14134 8.64118 6.00042 12.5001 6.00042ZM2.50024 22C2.50024 20.8971 3.39724 20.0001 4.50022 20.0001H20.5C21.603 20.0001 22.5 20.8971 22.5 22H2.50024ZM21.297 6.21141C20.904 5.82242 20.901 5.19043 21.289 4.79744L22.789 3.28048C23.177 2.88749 23.81 2.88449 24.203 3.27248C24.596 3.66147 24.599 4.29345 24.211 4.68645L22.711 6.20341C22.516 6.40141 22.258 6.5004 22 6.5004C21.746 6.5004 21.492 6.40341 21.297 6.21141ZM17.1121 2.04051L17.8891 0.540542C18.1431 0.0485532 18.7481 -0.141442 19.2371 0.112552C19.7271 0.366546 19.9191 0.969532 19.6651 1.46052L18.8881 2.96049C18.7101 3.30448 18.3611 3.50047 17.9991 3.50047C17.8441 3.50047 17.6871 3.46447 17.5401 3.38848C17.0501 3.13448 16.8581 2.5315 17.1121 2.04051ZM0.789264 4.68745C0.400268 4.29445 0.404268 3.66247 0.797264 3.27348C1.18926 2.88449 1.82425 2.88849 2.21125 3.28148L3.71123 4.79844C4.10023 5.19143 4.09623 5.82342 3.70323 6.21241C3.50923 6.40441 3.25424 6.5014 3.00024 6.5014C2.74224 6.5014 2.48425 6.40241 2.28925 6.20441L0.789264 4.68745ZM5.33521 1.46052C5.08122 0.970532 5.27321 0.366546 5.76321 0.112552C6.2502 -0.141442 6.8562 0.0485532 7.11119 0.540542L7.88819 2.04051C8.14218 2.5305 7.95018 3.13448 7.46019 3.38848C7.31419 3.46447 7.15619 3.50047 7.00119 3.50047C6.6402 3.50047 6.2902 3.30448 6.11221 2.96049L5.33521 1.46052ZM8.50018 13.0003C8.50018 10.7943 10.2942 9.00035 12.5001 9.00035C13.0531 9.00035 13.5001 9.44734 13.5001 10.0003C13.5001 10.5533 13.0531 11.0003 12.5001 11.0003C11.3971 11.0003 10.5002 11.8973 10.5002 13.0003C10.5002 13.5532 10.0532 14.0002 9.50017 14.0002C8.94717 14.0002 8.50018 13.5532 8.50018 13.0003Z" fill="#7B7A78"/>
</svg>
