<svg width="21" height="20" viewBox="0 0 21 20" fill="none" xmlns="http://www.w3.org/2000/svg">
<path d="M17.1663 16.6667V10.8333M10.4997 16.6667V8.33333M3.83301 16.6667L3.83301 13.3333M11.6719 4.18959L15.9789 5.80472M9.49865 4.50077L4.8332 7.99986M18.0502 5.36612C18.5384 5.85427 18.5384 6.64573 18.0502 7.13388C17.5621 7.62204 16.7706 7.62204 16.2825 7.13388C15.7943 6.64573 15.7943 5.85427 16.2825 5.36612C16.7706 4.87796 17.5621 4.87796 18.0502 5.36612ZM4.71689 7.86612C5.20505 8.35427 5.20505 9.14573 4.71689 9.63388C4.22874 10.122 3.43728 10.122 2.94912 9.63388C2.46097 9.14573 2.46097 8.35427 2.94912 7.86612C3.43728 7.37796 4.22874 7.37796 4.71689 7.86612ZM11.3836 2.86612C11.8717 3.35427 11.8717 4.14573 11.3836 4.63388C10.8954 5.12204 10.1039 5.12204 9.61579 4.63388C9.12764 4.14573 9.12764 3.35427 9.61579 2.86612C10.1039 2.37796 10.8954 2.37796 11.3836 2.86612Z" stroke="#7B7A78" stroke-width="2" stroke-linecap="round" stroke-linejoin="round"/>
</svg>
