<svg width="25" height="24" viewBox="0 0 25 24" fill="none" xmlns="http://www.w3.org/2000/svg">
<path d="M9.1138 21V13.6C9.1138 13.0399 9.1138 12.7599 9.22416 12.546C9.32125 12.3578 9.47616 12.2049 9.6667 12.109C9.88331 12 10.1669 12 10.734 12H13.5693C14.1364 12 14.42 12 14.6366 12.109C14.8271 12.2049 14.9821 12.3578 15.0791 12.546C15.1895 12.7599 15.1895 13.0399 15.1895 13.6V21M11.157 2.76401L4.28906 8.03914C3.82997 8.39176 3.60043 8.56807 3.43506 8.78887C3.28857 8.98446 3.17945 9.2048 3.11305 9.43907C3.03809 9.70353 3.03809 9.99071 3.03809 10.5651V17.8C3.03809 18.9201 3.03809 19.4802 3.25882 19.908C3.45299 20.2843 3.76281 20.5903 4.14388 20.782C4.57711 21 5.14423 21 6.27846 21H18.0248C19.1591 21 19.7262 21 20.1594 20.782C20.5405 20.5903 20.8503 20.2843 21.0445 19.908C21.2652 19.4802 21.2652 18.9201 21.2652 17.8V10.5651C21.2652 9.99071 21.2652 9.70353 21.1903 9.43907C21.1239 9.2048 21.0147 8.98446 20.8682 8.78887C20.7029 8.56807 20.4733 8.39176 20.0142 8.03914L13.1464 2.76401C12.7906 2.49076 12.6127 2.35413 12.4163 2.30162C12.243 2.25528 12.0603 2.25528 11.887 2.30162C11.6906 2.35413 11.5127 2.49076 11.157 2.76401Z" stroke="#FDFDFD" stroke-width="2" stroke-linecap="round" stroke-linejoin="round"/>
</svg>
