<svg width="20" height="20" viewBox="0 0 20 20" fill="none" xmlns="http://www.w3.org/2000/svg">
<g clip-path="url(#clip0_4544_1004)">
<path d="M9.99935 13.3333V10M9.99935 6.66667H10.0077M1.66602 7.10229V12.8977C1.66602 13.1015 1.66602 13.2035 1.68904 13.2994C1.70945 13.3844 1.74312 13.4657 1.78882 13.5402C1.84035 13.6243 1.91241 13.6964 2.05654 13.8405L6.15882 17.9428C6.30295 18.0869 6.37501 18.159 6.45911 18.2105C6.53367 18.2562 6.61496 18.2899 6.69999 18.3103C6.7959 18.3333 6.89781 18.3333 7.10163 18.3333H12.8971C13.1009 18.3333 13.2028 18.3333 13.2987 18.3103C13.3837 18.2899 13.465 18.2562 13.5396 18.2105C13.6237 18.159 13.6957 18.0869 13.8399 17.9428L17.9422 13.8405C18.0863 13.6964 18.1583 13.6243 18.2099 13.5402C18.2556 13.4657 18.2892 13.3844 18.3097 13.2994C18.3327 13.2035 18.3327 13.1015 18.3327 12.8977V7.10229C18.3327 6.89846 18.3327 6.79655 18.3097 6.70065C18.2892 6.61562 18.2556 6.53433 18.2099 6.45977C18.1583 6.37567 18.0863 6.30361 17.9422 6.15948L13.8399 2.0572C13.6957 1.91307 13.6237 1.84101 13.5396 1.78947C13.465 1.74378 13.3837 1.71011 13.2987 1.6897C13.2028 1.66667 13.1009 1.66667 12.8971 1.66667H7.10163C6.89781 1.66667 6.7959 1.66667 6.69999 1.6897C6.61496 1.71011 6.53367 1.74378 6.45911 1.78947C6.37501 1.84101 6.30295 1.91307 6.15882 2.0572L2.05654 6.15948C1.91241 6.30361 1.84035 6.37567 1.78882 6.45977C1.74312 6.53433 1.70945 6.61562 1.68904 6.70065C1.66602 6.79655 1.66602 6.89846 1.66602 7.10229Z" stroke="#282828" stroke-width="2" stroke-linecap="round" stroke-linejoin="round"/>
</g>
<defs>
<clipPath id="clip0_4544_1004">
<rect width="20" height="20" fill="white"/>
</clipPath>
</defs>
</svg>
