<svg width="25" height="24" viewBox="0 0 25 24" fill="none" xmlns="http://www.w3.org/2000/svg">
<g clip-path="url(#clip0_4345_7799)">
<path d="M18 11C14.416 11 11.5 13.916 11.5 17.5C11.5 21.084 14.416 24 18 24C21.584 24 24.5 21.084 24.5 17.5C24.5 13.916 21.584 11 18 11ZM18 13C18.879 13 19.701 13.254 20.394 13.692L14.191 19.895C13.753 19.201 13.499 18.38 13.499 17.501C13.499 15.02 15.518 13.001 17.999 13.001L18 13ZM18 22C17.121 22 16.299 21.746 15.606 21.308L21.809 15.105C22.247 15.799 22.501 16.62 22.501 17.499C22.501 19.98 20.482 21.999 18.001 21.999L18 22ZM2.5 13V17.5C2.5 19.981 4.519 22 7 22C7.722 22 8.409 21.835 9.044 21.51C9.537 21.261 10.139 21.453 10.39 21.946C10.641 22.437 10.447 23.04 9.955 23.292C9.048 23.756 8.026 24.001 6.999 24.001C3.416 24 0.5 21.084 0.5 17.5V6.5C0.5 2.916 3.416 0 7 0C10.584 0 13.5 2.916 13.5 6.5V9C13.5 9.553 13.052 10 12.5 10C11.948 10 11.5 9.553 11.5 9V6.5C11.5 4.019 9.481 2 7 2C4.519 2 2.5 4.019 2.5 6.5V11H9.5C10.052 11 10.5 11.447 10.5 12C10.5 12.553 10.052 13 9.5 13H2.5Z" fill="#7B7A78"/>
</g>
<defs>
<clipPath id="clip0_4345_7799">
<rect width="24" height="24" fill="white" transform="translate(0.5)"/>
</clipPath>
</defs>
</svg>
