<svg width="25" height="24" viewBox="0 0 25 24" fill="none" xmlns="http://www.w3.org/2000/svg">
<path d="M22 21H4.68889C4.09772 21 3.80214 21 3.57634 20.891C3.37773 20.7951 3.21625 20.6422 3.11505 20.454C3 20.2401 3 19.9601 3 19.4V3M20.9444 8L16.8079 12.1827C16.6511 12.3412 16.5727 12.4204 16.4781 12.4614C16.3947 12.4976 16.3027 12.5125 16.2113 12.5047C16.1077 12.4958 16.006 12.4458 15.8025 12.3457L12.3642 10.6543C12.1607 10.5542 12.0589 10.5042 11.9554 10.4953C11.864 10.4875 11.772 10.5024 11.6885 10.5386C11.594 10.5796 11.5156 10.6588 11.3588 10.8173L7.22222 15" stroke="#7B7A78" stroke-width="2" stroke-linecap="round" stroke-linejoin="round"/>
</svg>
