<svg width="18" height="18" viewBox="0 0 18 18" fill="none" xmlns="http://www.w3.org/2000/svg">
<path d="M2.77778 1.88889H1.88889C1.39797 1.88889 1 2.28686 1 2.77778V6.33333C1 8.78793 2.98985 10.7778 5.44444 10.7778M8.11111 1.88889H9C9.49092 1.88889 9.88889 2.28686 9.88889 2.77778V6.33333C9.88889 8.78793 7.89904 10.7778 5.44444 10.7778M5.44444 10.7778V12.1111C5.44444 14.8112 7.63327 17 10.3333 17C13.0334 17 15.2222 14.8112 15.2222 12.1111V10.7778M15.2222 10.7778C16.2041 10.7778 17 9.98184 17 9C17 8.01816 16.2041 7.22222 15.2222 7.22222C14.2404 7.22222 13.4444 8.01816 13.4444 9C13.4444 9.98184 14.2404 10.7778 15.2222 10.7778ZM7.22222 1V2.77778M3.66667 1V2.77778" stroke="#6179FA" stroke-width="2" stroke-linecap="round" stroke-linejoin="round"/>
</svg>
